# xmcd
#
# Track frame offsets:
#	150
#	16484
#	30938
#	46198
#	60614
#	73898
#	87451
#	110698
#	122493
#	153111
#	165559
#	179673
#
# Disc length: 2672 seconds
#
# Revision: 0
# Processed by: cddbd v1.5.2PL0 Copyright (c) Steve Scherf et al.
# Submitted via: EZCDAudioConverter 1.0.6.1
#
DISCID=980a6e0c
DTITLE=Mel Jones and his Bag O' Bones - Livin' Bones
DYEAR=2003
DGENRE=Blues
TTITLE0=Deep River Blues
TTITLE1=Hesitation Blues
TTITLE2=Racetrack Blues
TTITLE3=Do You Know What It Means To Miss New Orleans?
TTITLE4=The Brim Rap
TTITLE5=Dixie
TTITLE6=Frankie and Johnnie
TTITLE7=My Babe
TTITLE8=Take Out Some Insurance
TTITLE9=I've Got My Fingers Crossed
TTITLE10=Ain't Misbehavin'
TTITLE11=Sweet Georgia Brown
EXTD=
EXTT0=
EXTT1=
EXTT2=
EXTT3=
EXTT4=
EXTT5=
EXTT6=
EXTT7=
EXTT8=
EXTT9=
EXTT10=
EXTT11=
PLAYORDER=
